HIERARCHY
ROOT Hips
{
	OFFSET 0.000000 0.000000 0.000000
	CHANNELS 6 Xposition Yposition Zposition Zrotation Yrotation Xrotation 
	JOINT LHipJoint
	{
		OFFSET 0.000000 0.000000 0.000000
		CHANNELS 3 Zrotation Yrotation Xrotation
		JOINT LeftUpLeg
		{
			OFFSET 1.363060 -1.794630 0.839290
			CHANNELS 3 Zrotation Yrotation Xrotation
			JOINT LeftLeg
			{
				OFFSET 2.448110 -6.726130 0.000000
				CHANNELS 3 Zrotation Yrotation Xrotation
				JOINT LeftFoot
				{
					OFFSET 2.562200 -7.039590 0.000000
					CHANNELS 3 Zrotation Yrotation Xrotation
					JOINT LeftToeBase
					{
						OFFSET 0.157640 -0.433110 2.322550
						CHANNELS 3 Zrotation Yrotation Xrotation
						End Site
						{
							OFFSET 0.000000 0.000000 0.000000
						}
					}
				}
			}
		}
	}
	JOINT RHipJoint
	{
		OFFSET 0.000000 0.000000 0.000000
		CHANNELS 3 Zrotation Yrotation Xrotation
		JOINT RightUpLeg
		{
			OFFSET -1.305520 -1.794630 0.839290
			CHANNELS 3 Zrotation Yrotation Xrotation
			JOINT RightLeg
			{
				OFFSET -2.542530 -6.985550 0.000000
				CHANNELS 3 Zrotation Yrotation Xrotation
				JOINT RightFoot
				{
					OFFSET -2.568260 -7.056230 0.000000
					CHANNELS 3 Zrotation Yrotation Xrotation
					JOINT RightToeBase
					{
						OFFSET -0.164730 -0.452590 2.363150
						CHANNELS 3 Zrotation Yrotation Xrotation
						End Site
						{
							OFFSET 0.000000 0.000000 0.000000
						}
					}
				}
			}
		}
	}
}
MOTION
Frames: 30
Frame Time: 0.008333
26.075969 15.071986 2.641413 -145.925734 -85.234842 179.489003 -8.100330 -1.370316 0.467406 -12.797145 -4.852056 -82.695185 -0.541025 5.075365 61.906357 2.266539 7.580210 -14.676040 -0.595300 0.000000 -17.072599 10.403173 -1.577129 -4.307921 10.626795 -7.347355 -18.626304 2.576749 -2.408786 45.317759 -0.384191 4.900653 -22.553121 -0.548500 -0.000000 -67.597299
25.879100 15.052786 2.642500 -147.900769 -85.097126 -178.922787 -8.185515 -1.387926 0.292737 -13.022452 -4.454468 -82.071237 -0.464777 5.175745 63.319812 2.323313 7.737485 -15.834932 -0.817901 0.000000 -15.832600 10.454909 -1.682147 -4.274112 10.164359 -7.480981 -17.930370 2.377456 -2.485043 45.745795 -0.247763 4.932153 -20.622783 -0.538600 0.000000 -70.319100
25.683206 15.036040 2.644906 -149.356892 -84.960782 -177.841233 -8.262324 -1.397480 0.127681 -13.216983 -4.074338 -81.378388 -0.405904 5.257699 64.604665 2.394276 7.919919 -17.138186 -1.073501 0.000000 -14.936000 10.517223 -1.784750 -4.237718 9.739962 -7.583003 -17.342865 2.156958 -2.574037 46.304972 -0.125868 4.915838 -18.553964 -0.500700 -0.000000 -72.590600
25.488910 15.021661 2.648733 -150.335035 -84.818966 -177.218817 -8.331660 -1.397365 -0.022745 -13.367870 -3.717610 -80.632549 -0.359634 5.322334 65.763075 2.479281 8.139933 -18.519730 -1.355500 0.000000 -14.412500 10.588507 -1.879471 -4.197522 9.363930 -7.648118 -16.881278 1.916459 -2.671543 47.012438 -0.028306 4.822666 -16.406527 -0.433200 -0.000000 -74.252400
25.296092 15.009605 2.653957 -150.875009 -84.667210 -177.007682 -8.394656 -1.387466 -0.154720 -13.467175 -3.388895 -79.851453 -0.321205 5.371017 66.800284 2.576641 8.404955 -19.912707 -1.656200 -0.000000 -14.267900 10.666571 -1.961651 -4.152415 9.046517 -7.671667 -16.561268 1.659349 -2.773088 47.879663 0.035833 4.616624 -14.256567 -0.340100 0.000000 -75.212700
25.105300 14.999748 2.660579 -150.973146 -84.499760 -177.203658 -8.451510 -1.368375 -0.265631 -13.508093 -3.087063 -79.056739 -0.286182 5.405682 67.725486 2.683073 8.715124 -21.257117 -1.967700 0.000000 -14.475200 10.749674 -2.027319 -4.100378 8.802008 -7.644860 -16.394928 1.390866 -2.873902 48.912261 0.058885 4.255389 -12.197185 -0.232800 -0.000001 -75.433500
24.916675 14.992301 2.667941 -150.975516 -84.332715 -177.459807 -8.509126 -1.345803 -0.357429 -13.516984 -2.822666 -78.247860 -0.253382 5.427028 68.539194 2.795387 9.070314 -22.506828 -2.283000 0.000000 -14.967300 10.830460 -2.076928 -4.046393 8.608279 -7.590237 -16.392496 1.118059 -2.974812 50.114784 0.038372 3.712659 -10.304358 -0.128900 -0.000001 -74.934401
24.730775 14.987099 2.676365 -150.620664 -84.148652 -178.029546 -8.562212 -1.317941 -0.429698 -13.474982 -2.576521 -77.455909 -0.219472 5.438324 69.259075 2.908475 9.455008 -23.632873 -2.593600 0.000000 -15.657200 10.911968 -2.106460 -3.985970 8.500201 -7.483067 -16.554071 0.847053 -3.069911 51.478704 -0.029633 2.943954 -8.685073 -0.047000 0.000001 -73.734400
24.547516 14.984549 2.685003 -150.304056 -83.968857 -178.522905 -8.618609 -1.290978 -0.487192 -13.420106 -2.355695 -76.671881 -0.186580 5.440141 69.882170 3.019120 9.860091 -24.621490 -2.893800 0.000000 -16.448800 10.986258 -2.119038 -3.925723 8.443686 -7.354403 -16.883986 0.584774 -3.163232 52.997700 -0.142430 1.944791 -7.394628 -0.002200 0.000000 -71.924700
24.367638 14.984679 2.694126 -149.830385 -83.780920 -179.135513 -8.673804 -1.263296 -0.533968 -13.343166 -2.137723 -75.910308 -0.154936 5.435455 70.420620 3.123124 10.264110 -25.478185 -3.177800 -0.000000 -17.243700 11.056491 -2.112858 -3.864935 8.460406 -7.192240 -17.370858 0.335576 -3.252531 54.653263 -0.298788 0.706816 -6.497542 -0.000300 -0.000000 -69.519900
24.191245 14.987792 2.703388 -149.324582 -83.591951 -179.747692 -8.729939 -1.236830 -0.575572 -13.262110 -1.914909 -75.165338 -0.127565 5.425573 70.874622 3.218217 10.651625 -26.218267 -3.442800 0.000000 -17.972701 11.120482 -2.089853 -3.807512 8.535456 -7.012160 -18.007761 0.103464 -3.340586 56.425884 -0.494207 -0.744018 -6.018133 -0.033700 -0.000000 -66.580300
24.018570 14.994059 2.712829 -148.774290 -83.401301 179.621368 -8.786064 -1.211490 -0.617901 -13.183078 -1.673485 -74.432092 -0.107203 5.412079 71.246985 3.302710 11.006779 -26.866075 -3.687600 -0.000000 -18.588300 11.179087 -2.050920 -3.756353 8.664845 -6.822523 -18.781523 -0.109170 -3.429165 58.290306 -0.723192 -2.363823 -5.959762 -0.082000 0.000000 -63.163800
23.849526 15.003769 2.722052 -148.354569 -83.219544 179.140617 -8.845360 -1.188470 -0.664441 -13.129194 -1.412885 -73.700390 -0.097523 5.395174 71.531295 3.376786 11.322099 -27.443335 -3.913200 -0.000000 -19.091099 11.229302 -1.999365 -3.713545 8.822243 -6.640451 -19.688064 -0.300150 -3.522154 60.221138 -0.977427 -4.082414 -6.303251 -0.115600 -0.000001 -59.283100
23.684552 15.016950 2.731528 -147.889860 -83.037296 178.627553 -8.903366 -1.165606 -0.720473 -13.087695 -1.115073 -72.964343 -0.100043 5.376166 71.732599 3.439831 11.585993 -27.978092 -4.121000 0.000000 -19.478500 11.275577 -1.935079 -3.680501 9.018122 -6.465773 -20.706586 -0.469724 -3.619483 62.184064 -1.248058 -5.829361 -7.005028 -0.103099 -0.000000 -55.034400
23.523120 15.033573 2.741308 -147.408138 -82.857100 178.103579 -8.960038 -1.142690 -0.788561 -13.063357 -0.777416 -72.215971 -0.116336 5.355178 71.849918 3.492653 11.796215 -28.488429 -4.313000 -0.000000 -19.784100 11.317904 -1.859944 -3.658171 9.240926 -6.307176 -21.827755 -0.618122 -3.723005 64.149150 -1.523208 -7.520802 -8.004559 -0.019100 0.000000 -50.509800
23.365281 15.053681 2.751172 -147.019571 -82.686592 177.676720 -9.017519 -1.119769 -0.867899 -13.067678 -0.406028 -71.448857 -0.147415 5.331405 71.879047 3.536659 11.956146 -28.981199 -4.490500 0.000000 -20.065100 11.354038 -1.777132 -3.644771 9.471327 -6.171718 -23.049437 -0.746056 -3.834552 66.089351 -1.789327 -9.073120 -9.231191 0.149900 -0.000001 -45.793600
23.210487 15.076935 2.761548 -146.588336 -82.520092 177.207821 -9.072796 -1.095469 -0.959671 -13.084622 0.004346 -70.659572 -0.191968 5.305079 71.827155 3.571855 12.065710 -29.461116 -4.653200 -0.000000 -20.362100 11.386681 -1.686822 -3.639981 9.718757 -6.057177 -24.355497 -0.855660 -3.952798 67.973682 -2.033960 -10.422201 -10.598165 0.399200 0.000000 -41.079100
23.058801 15.103069 2.772382 -146.136583 -82.361302 176.716743 -9.126421 -1.069786 -1.061697 -13.112577 0.446626 -69.847591 -0.248429 5.275622 71.697667 3.598620 12.129686 -29.920345 -4.799000 0.000001 -20.729800 11.414679 -1.590500 -3.641522 9.977649 -5.963597 -25.740687 -0.949014 -4.077321 69.778398 -2.245306 -11.515170 -12.019811 0.708400 -0.000000 -36.544600
22.909394 15.131685 2.783544 -145.679318 -82.214930 176.219826 -9.179065 -1.042687 -1.171055 -13.149288 0.911097 -69.014527 -0.314340 5.242473 71.497154 3.616949 12.153563 -30.344962 -4.925100 0.000000 -21.211100 11.436762 -1.489281 -3.646784 10.244831 -5.889161 -27.200585 -1.028454 -4.207051 71.483059 -2.413948 -12.318170 -13.412490 1.044300 -0.000000 -32.397900
22.762095 15.162351 2.794900 -145.208999 -82.084898 175.708531 -9.230914 -1.014276 -1.284912 -13.189162 1.388871 -68.163851 -0.386691 5.205406 71.234762 3.626238 12.141584 -30.718158 -5.027400 0.000000 -21.834000 11.451935 -1.383546 -3.653331 10.521756 -5.829553 -28.728555 -1.096486 -4.340309 73.070520 -2.534066 -12.819240 -14.702105 1.368599 0.000000 -28.830800
22.616440 15.194616 2.806389 -144.680220 -81.973132 175.139374 -9.281781 -0.984505 -1.401151 -13.222431 1.873187 -67.298165 -0.462337 5.164559 70.922339 3.625402 12.095744 -31.025299 -5.101901 -0.000000 -22.595600 11.459844 -1.273525 -3.659386 10.815109 -5.778908 -30.313240 -1.155056 -4.474759 74.525130 -2.603699 -13.026129 -15.831971 1.646900 -0.000000 -25.989000
22.472195 15.228172 2.817500 -144.170813 -81.889203 174.589314 -9.333508 -0.953827 -1.515930 -13.255092 2.349015 -66.422579 -0.538507 5.119519 70.568123 3.613986 12.021264 -31.247521 -5.145200 0.000001 -23.510100 11.457804 -1.159740 -3.661768 11.116676 -5.733295 -31.953991 -1.206014 -4.609475 75.839967 -2.624256 -12.960772 -16.767178 1.854700 -0.000000 -23.952700
22.328913 15.262552 2.828145 -143.608655 -81.833224 173.987051 -9.385152 -0.922342 -1.629318 -13.275769 2.813640 -65.538799 -0.612855 5.071216 70.186055 3.590943 11.916790 -31.381687 -5.155400 0.000000 -24.521500 11.446186 -1.041717 -3.660531 11.435802 -5.686114 -33.635150 -1.249931 -4.742158 77.004878 -2.601203 -12.662444 -17.496740 1.981800 0.000000 -22.719700
22.186426 15.297553 2.838007 -143.003947 -81.809322 173.340966 -9.436965 -0.890510 -1.740812 -13.283498 3.260442 -64.648784 -0.683892 5.020222 69.785943 3.556103 11.783094 -31.427181 -5.133001 -0.000000 -25.580900 11.423977 -0.919271 -3.655219 11.771061 -5.632481 -35.347538 -1.286857 -4.871729 78.016360 -2.542454 -12.178054 -18.033019 2.031900 0.000000 -22.199800
22.044764 15.332975 2.846815 -142.377827 -81.820342 172.671913 -9.489552 -0.858514 -1.849924 -13.280640 3.684447 -63.753254 -0.750648 4.966817 69.374083 3.509692 11.622017 -31.383781 -5.078700 0.000001 -26.683100 11.390034 -0.792523 -3.644658 12.117450 -5.567139 -37.084321 -1.316295 -4.997383 78.873494 -2.457851 -11.560909 -18.404056 2.017900 0.000000 -22.241600
21.903397 15.368695 2.854459 -141.706241 -81.865381 171.955586 -9.542402 -0.826805 -1.958090 -13.263680 4.086191 -62.851592 -0.813137 4.911809 68.956607 3.452484 11.433375 -31.264524 -4.996300 -0.000000 -27.777499 11.344253 -0.661399 -3.629511 12.475058 -5.485174 -38.834484 -1.336734 -5.118368 79.575958 -2.357908 -10.864286 -18.653039 1.959501 -0.000000 -22.630200
21.762698 15.404673 2.860871 -140.977267 -81.941834 171.178097 -9.595138 -0.795859 -2.066766 -13.231028 4.467523 -61.942147 -0.871942 4.855744 68.535983 3.385633 11.217596 -31.084215 -4.890200 0.000000 -28.840100 11.286397 -0.526078 -3.610122 12.841953 -5.381964 -40.589370 -1.346494 -5.234342 80.125952 -2.252650 -10.137452 -18.827133 1.876600 -0.000000 -23.139900
21.622279 15.440838 2.866147 -140.165512 -82.044657 170.313486 -9.647416 -0.766509 -2.177663 -13.179332 4.833143 -61.023068 -0.927795 4.799046 68.112812 3.310694 10.976945 -30.857902 -4.765400 0.000001 -29.875800 11.216441 -0.387307 -3.586658 13.216722 -5.252899 -42.340626 -1.344021 -5.345016 80.525919 -2.150901 -9.424038 -18.966573 1.786100 0.000000 -23.586700
21.482003 15.477203 2.870386 -139.255772 -82.167915 169.349002 -9.698677 -0.739031 -2.291286 -13.107610 5.186333 -60.095173 -0.982170 4.741929 67.684279 3.229889 10.713867 -30.605891 -4.628300 -0.000000 -30.858300 11.134284 -0.245842 -3.558449 13.597361 -5.094013 -44.085097 -1.327594 -5.450210 80.779220 -2.059451 -8.755976 -19.109098 1.700901 -0.000000 -23.796600
21.341594 15.513727 2.873775 -138.221092 -82.304240 168.259568 -9.748688 -0.714363 -2.408341 -13.012220 5.532257 -59.158421 -1.036017 4.684406 67.247080 3.145049 10.432085 -30.341446 -4.483501 -0.000000 -31.817500 11.039861 -0.103190 -3.524509 13.983267 -4.900907 -45.818408 -1.296434 -5.549488 80.886953 -1.983407 -8.159656 -19.270353 1.628500 0.000001 -23.719700
